<svg width="160" height="44" viewBox="0 0 160 44" fill="none" xmlns="http://www.w3.org/2000/svg">
<path d="M12.968 12.3982C12.92 12.555 12.8172 12.6874 12.68 12.7745L1.04419 20.1404C0.571081 20.44 -0.0391659 20.0672 0.00197432 19.5028C0.262529 15.8477 1.61673 12.8546 2.4841 10.9417C3.40633 8.91037 4.33199 6.86855 5.61762 5.10199C5.87132 4.75356 6.37529 4.7222 6.67013 5.03928L12.8206 11.7153C12.9886 11.8999 13.0469 12.1613 12.9714 12.4017L12.968 12.3982Z" fill="#FCCD06"/>
<path d="M20.216 22.3215L16.0334 28.1229C15.3855 29.0219 14.1719 29.2728 13.2291 28.7013L3.70508 22.9313C3.26625 22.6664 3.25939 22.0218 3.6948 21.7466C7.20543 19.4922 10.7161 17.2379 14.2267 14.987C14.813 14.6107 15.5775 14.7117 16.0506 15.2239L20.0515 19.5689C20.7509 20.3285 20.8194 21.4853 20.216 22.3215Z" fill="#19B27A"/>
<path d="M11.7824 34.0182C10.3082 36.0635 8.83401 38.1053 7.35982 40.1506C6.67072 41.1088 5.25138 41.0496 4.62742 40.0461C3.80461 38.7255 2.96809 37.1053 2.27899 35.1959C1.30191 32.4851 0.914507 29.9694 0.797943 27.9032C0.719091 26.5338 2.20014 25.6558 3.33835 26.3944C6.00562 28.1366 8.67631 29.8753 11.3436 31.6175C12.1424 32.1401 12.3446 33.2377 11.7824 34.0182Z" fill="#19B27A"/>
<path d="M34.2209 30.8749L25.1975 21.0804C24.9747 20.8365 24.9507 20.4637 25.1461 20.1954L32.2428 10.3556C32.5342 9.94794 33.1479 9.98627 33.3913 10.4218C36.3294 15.7075 36.3568 21.3313 36.3637 23.3382C36.3705 24.502 36.3054 27.2163 35.3797 30.5787C35.2357 31.1013 34.5878 31.2686 34.2209 30.8714V30.8749Z" fill="#19B27A"/>
<path d="M16.4521 0.823393L14.4238 6.71282C14.2042 7.36226 13.0715 7.59367 12.3632 6.95693L8.64294 2.91827C8.36346 2.63454 8.47348 2.04976 8.81618 1.83538C8.98919 1.72819 9.16886 1.621 9.35186 1.52012C11.3182 0.438775 13.5475 -0.0183531 15.8299 0.000562554C16.2758 0.00371516 16.5885 0.419859 16.4521 0.823393Z" fill="#FF74D7"/>
<path d="M30.3915 8.19929L23.9804 17.0948C23.4216 17.8683 22.3108 17.938 21.6663 17.2377L16.8049 11.9589C16.4312 11.5512 16.3044 10.9728 16.4724 10.4432L19.2116 1.80205C19.4653 1.00762 20.295 0.57208 21.0835 0.80553C24.1244 1.71146 26.994 3.31425 29.2018 5.23412C29.5652 5.5512 29.9115 5.87175 30.2406 6.20625C30.7686 6.73935 30.8337 7.58605 30.3949 8.19929H30.3915Z" fill="#FCCD06"/>
<path d="M33.2884 33.9346C33.5626 34.2343 33.7306 34.6245 33.7238 35.0322C33.7238 35.0357 33.7238 35.0392 33.7238 35.0426C33.5901 40.5793 10.4898 46.1437 9.12875 43.1716C8.99161 42.8719 9.09789 42.534 9.15274 42.3876L21.5154 25.2342C22.3725 24.0426 24.0832 23.9381 25.0775 25.0147L33.2918 33.9311L33.2884 33.9346Z" fill="#FCCD06"/>
<path d="M154.166 16.8286C155.93 16.8287 157.248 17.2718 158.13 17.7202C158.57 17.9441 158.901 18.1686 159.123 18.3394C159.234 18.4247 159.319 18.4967 159.376 18.5483C159.405 18.574 159.426 18.5951 159.441 18.6099C159.449 18.6172 159.456 18.6231 159.46 18.6274C159.462 18.6296 159.464 18.6319 159.465 18.6333L159.468 18.6353L159.264 18.8315L159.468 18.6362L159.607 18.7788L157.946 22.0854L157.669 21.8267L157.667 21.8257C157.665 21.8241 157.662 21.8215 157.658 21.8179C157.649 21.81 157.634 21.7978 157.615 21.7817C157.577 21.7497 157.518 21.7023 157.439 21.645C157.282 21.5302 157.047 21.3746 156.742 21.2192C156.132 20.9084 155.244 20.5972 154.136 20.5972C153.678 20.5972 153.25 20.6948 152.947 20.8813C152.656 21.0607 152.482 21.3179 152.481 21.6802C152.481 21.856 152.554 22.0195 152.719 22.188C152.889 22.3618 153.146 22.5281 153.482 22.6987C153.817 22.8682 154.21 23.0322 154.644 23.2065C155.073 23.3794 155.542 23.5627 156.009 23.7671C157.863 24.5783 159.876 25.7954 159.876 28.4175C159.876 31.1448 157.488 33.2406 153.778 33.2407C151.828 33.2407 150.304 32.6672 149.269 32.0923C148.751 31.805 148.354 31.5168 148.086 31.2993C147.952 31.1905 147.849 31.0987 147.779 31.0337C147.745 31.0013 147.718 30.9758 147.699 30.9575C147.69 30.9485 147.683 30.9412 147.678 30.936C147.675 30.9334 147.673 30.9308 147.672 30.9292C147.671 30.9285 147.67 30.9277 147.67 30.9272H147.669C147.669 30.9271 147.669 30.9265 147.875 30.7329C147.879 30.7373 148.01 30.8736 148.26 31.0767C148.134 30.9742 148.038 30.8887 147.974 30.8286L147.875 30.7329L147.669 30.9263L147.516 30.7651L149.558 27.646L149.808 27.895C149.81 27.8974 149.814 27.9008 149.819 27.9058C149.83 27.9163 149.848 27.9327 149.871 27.9536C149.918 27.9956 149.988 28.0573 150.081 28.1313C150.267 28.2797 150.541 28.479 150.89 28.6782C151.588 29.0775 152.575 29.4711 153.748 29.4712C154.248 29.4712 154.691 29.3601 154.998 29.1665C155.297 28.9783 155.462 28.7195 155.462 28.3882C155.462 28.0027 155.15 27.6687 154.457 27.3032C154.124 27.1275 153.731 26.9589 153.298 26.7808C152.869 26.6042 152.4 26.4184 151.934 26.2124C150.081 25.3944 148.068 24.1845 148.068 21.562C148.068 20.0573 148.749 18.8618 149.861 18.0513C150.965 17.2466 152.483 16.8286 154.166 16.8286ZM153.602 32.9575L153.778 32.9585C153.687 32.9585 153.596 32.9562 153.506 32.9536C153.538 32.9545 153.57 32.9569 153.602 32.9575ZM153.19 32.939C153.237 32.9419 153.285 32.9446 153.332 32.9468C153.285 32.9446 153.237 32.9419 153.19 32.939ZM152.838 32.9106C152.893 32.9161 152.948 32.9217 153.004 32.9263C152.948 32.9217 152.893 32.9161 152.838 32.9106ZM154.801 32.9009C154.739 32.9079 154.678 32.9137 154.615 32.9194C154.678 32.9137 154.739 32.9079 154.801 32.9009ZM152.532 32.8755C152.584 32.8824 152.636 32.8889 152.688 32.895C152.636 32.8889 152.584 32.8824 152.532 32.8755ZM152.216 32.8267C152.265 32.8351 152.315 32.8444 152.365 32.8521C152.315 32.8444 152.265 32.8351 152.216 32.8267ZM151.924 32.772C151.967 32.7809 152.011 32.79 152.056 32.7983C152.011 32.79 151.967 32.7809 151.924 32.772ZM155.584 32.77C155.6 32.7666 155.615 32.7638 155.631 32.7603C155.615 32.7638 155.6 32.7666 155.584 32.77ZM151.636 32.7085C151.679 32.7189 151.723 32.7289 151.768 32.7388C151.723 32.7289 151.679 32.7189 151.636 32.7085ZM155.873 32.7007C155.885 32.6976 155.896 32.6941 155.908 32.6909C155.896 32.6941 155.885 32.6976 155.873 32.7007ZM151.342 32.6333C151.383 32.6448 151.425 32.6565 151.468 32.6675C151.425 32.6565 151.383 32.6448 151.342 32.6333ZM156.062 32.647C156.106 32.6337 156.151 32.621 156.195 32.6069C156.151 32.621 156.106 32.6337 156.062 32.647ZM151.052 32.5483C151.109 32.5663 151.168 32.584 151.227 32.6011C151.168 32.584 151.109 32.5663 151.052 32.5483ZM150.834 32.4771C150.872 32.4899 150.91 32.5026 150.948 32.5151C150.91 32.5026 150.872 32.4899 150.834 32.4771ZM156.6 32.4624C156.637 32.4477 156.674 32.4337 156.711 32.4185C156.674 32.4337 156.637 32.4477 156.6 32.4624ZM156.865 32.3511C156.888 32.3406 156.912 32.3305 156.935 32.3198C156.912 32.3305 156.888 32.3406 156.865 32.3511ZM149.944 32.1167C150.03 32.1569 150.118 32.1979 150.209 32.2368C150.118 32.1979 150.03 32.1569 149.944 32.1167ZM157.124 32.2271C157.142 32.218 157.159 32.2089 157.177 32.1997C157.159 32.2089 157.142 32.218 157.124 32.2271ZM157.298 32.1333C157.333 32.1137 157.368 32.094 157.402 32.0737C157.368 32.094 157.333 32.1137 157.298 32.1333ZM149.546 31.9185C149.624 31.9601 149.704 32.0033 149.788 32.0444C149.704 32.0033 149.624 31.9601 149.546 31.9185ZM157.541 31.9888C157.562 31.9752 157.584 31.9625 157.605 31.9487C157.584 31.9625 157.562 31.9752 157.541 31.9888ZM157.728 31.8657C157.759 31.8442 157.79 31.8233 157.82 31.8013C157.79 31.8233 157.759 31.8442 157.728 31.8657ZM149.236 31.7456C149.284 31.7738 149.332 31.8043 149.383 31.8325C149.332 31.8043 149.284 31.7738 149.236 31.7456ZM157.937 31.7124C157.959 31.6949 157.982 31.6775 158.004 31.6597C157.982 31.6775 157.959 31.6949 157.937 31.7124ZM158.136 31.5493C158.152 31.5352 158.169 31.5216 158.185 31.5073C158.169 31.5216 158.152 31.5352 158.136 31.5493ZM148.636 31.3599C148.668 31.3827 148.7 31.4068 148.734 31.4302C148.7 31.4068 148.668 31.3827 148.636 31.3599ZM158.302 31.3989C158.321 31.3803 158.341 31.3622 158.36 31.3433C158.341 31.3622 158.321 31.3803 158.302 31.3989ZM158.46 31.2407C158.483 31.2164 158.506 31.1922 158.528 31.1675C158.506 31.1922 158.483 31.2164 158.46 31.2407ZM158.604 31.0806C158.63 31.0495 158.657 31.0185 158.683 30.9868C158.657 31.0185 158.63 31.0495 158.604 31.0806ZM158.746 30.9058C158.77 30.8744 158.794 30.843 158.817 30.811C158.794 30.843 158.77 30.8744 158.746 30.9058ZM158.884 30.7163C158.906 30.6833 158.929 30.6502 158.95 30.6167C158.929 30.6502 158.906 30.6833 158.884 30.7163ZM159.001 30.5366C159.025 30.4966 159.049 30.4563 159.072 30.4155C159.049 30.4563 159.025 30.4966 159.001 30.5366ZM159.104 30.356C159.13 30.3092 159.154 30.262 159.178 30.2144C159.154 30.262 159.13 30.3092 159.104 30.356ZM159.208 30.1499C159.229 30.1042 159.251 30.0586 159.271 30.0122C159.251 30.0586 159.229 30.1042 159.208 30.1499ZM159.302 29.9351C159.317 29.8959 159.332 29.8565 159.347 29.8169C159.332 29.8565 159.317 29.8959 159.302 29.9351ZM159.394 29.6821C159.4 29.6626 159.406 29.6431 159.412 29.6235C159.406 29.6431 159.4 29.6626 159.394 29.6821ZM154.688 29.6157V29.6167V29.6157ZM159.457 29.4673C159.464 29.4423 159.47 29.4172 159.476 29.3921C159.47 29.4172 159.464 29.4423 159.457 29.4673ZM159.503 29.27C159.51 29.235 159.517 29.1999 159.523 29.1646C159.517 29.1999 159.51 29.235 159.503 29.27ZM159.543 29.0493C159.549 29.0081 159.556 28.9669 159.561 28.9253C159.556 28.9669 159.549 29.0081 159.543 29.0493ZM149.604 28.0913C149.61 28.0973 149.978 28.4598 150.619 28.8452C150.311 28.6602 150.066 28.481 149.895 28.3433L149.604 28.0913ZM159.571 28.8267C159.576 28.7752 159.58 28.7234 159.583 28.6714C159.58 28.7234 159.576 28.7752 159.571 28.8267ZM159.591 28.4175H159.592C159.592 28.3417 159.59 28.2672 159.587 28.1938C159.59 28.2672 159.591 28.3417 159.591 28.4175ZM155.71 28.1313C155.724 28.1813 155.735 28.232 155.74 28.2847L155.725 28.1841C155.721 28.1662 155.715 28.1489 155.71 28.1313ZM153.706 26.6479C153.842 26.7054 153.975 26.7612 154.103 26.8188C153.975 26.7612 153.842 26.7054 153.706 26.6479ZM157.877 25.1284C158.175 25.3529 158.449 25.6018 158.686 25.8813C158.449 25.6018 158.175 25.3529 157.877 25.1284ZM152.079 25.9673C152.111 25.9813 152.143 25.9945 152.175 26.0083C152.143 25.9945 152.111 25.9813 152.079 25.9673ZM151.706 25.7983C151.779 25.8323 151.852 25.8651 151.925 25.8979C151.852 25.8651 151.779 25.8323 151.706 25.7983ZM151.039 25.4634C151.096 25.4941 151.153 25.5235 151.21 25.5532C151.153 25.5235 151.096 25.4941 151.039 25.4634ZM150.717 25.2808C150.783 25.3204 150.851 25.358 150.919 25.396C150.851 25.358 150.783 25.3204 150.717 25.2808ZM150.399 25.0815C150.434 25.1047 150.47 25.1263 150.506 25.1489C150.47 25.1263 150.434 25.1047 150.399 25.0815ZM150.099 24.8706C150.144 24.9045 150.192 24.9364 150.238 24.9692C150.192 24.9364 150.144 24.9045 150.099 24.8706ZM149.807 24.6382C149.836 24.6629 149.866 24.6863 149.896 24.7104C149.866 24.6863 149.836 24.6629 149.807 24.6382ZM149.541 24.397C149.574 24.4288 149.608 24.4587 149.642 24.4897C149.608 24.4587 149.574 24.4289 149.541 24.397ZM149.293 24.1343C149.3 24.1426 149.307 24.1514 149.314 24.1597C149.307 24.1514 149.3 24.1426 149.293 24.1343ZM149.157 23.9702C149.175 23.9928 149.193 24.0154 149.211 24.0376C149.193 24.0154 149.175 23.9928 149.157 23.9702ZM149.062 23.8433C149.076 23.8631 149.091 23.8823 149.105 23.9019C149.091 23.8823 149.076 23.8631 149.062 23.8433ZM148.963 23.7007C148.971 23.7128 148.979 23.7248 148.987 23.7368C148.979 23.7248 148.971 23.7129 148.963 23.7007ZM148.858 23.5308C148.87 23.5514 148.882 23.572 148.895 23.5923C148.882 23.572 148.87 23.5514 148.858 23.5308ZM148.771 23.3716C148.783 23.396 148.796 23.4199 148.81 23.4438C148.796 23.4199 148.783 23.396 148.771 23.3716ZM148.682 23.1851C148.696 23.217 148.711 23.2485 148.726 23.2798C148.711 23.2485 148.696 23.217 148.682 23.1851ZM148.617 23.0337C148.628 23.0614 148.64 23.0885 148.651 23.1157C148.64 23.0885 148.628 23.0614 148.617 23.0337ZM148.557 22.8657C148.56 22.8755 148.563 22.8853 148.566 22.895C148.563 22.8853 148.56 22.8755 148.557 22.8657ZM148.49 22.647C148.499 22.6792 148.508 22.711 148.518 22.7427C148.508 22.711 148.499 22.6792 148.49 22.647ZM148.448 22.4741C148.455 22.5033 148.461 22.5323 148.468 22.561C148.461 22.5323 148.455 22.5033 148.448 22.4741ZM148.407 22.2603C148.412 22.2914 148.417 22.3224 148.423 22.353C148.417 22.3224 148.412 22.2914 148.407 22.2603ZM152.381 22.2251V22.2241V22.2251ZM148.38 22.0552C148.384 22.0896 148.387 22.1238 148.392 22.1577C148.387 22.1238 148.384 22.0896 148.38 22.0552ZM148.362 21.854C148.364 21.8795 148.365 21.9049 148.367 21.9302C148.365 21.9049 148.364 21.8795 148.362 21.854ZM152.198 21.6802V21.6812V21.6802ZM148.354 21.6753C148.354 21.6897 148.355 21.704 148.355 21.7183C148.354 21.6668 148.352 21.6146 148.352 21.562L148.354 21.6753ZM150.657 17.8892V17.8882V17.8892ZM156.164 17.3218V17.3208V17.3218ZM154.481 17.1157V17.1147V17.1157ZM159.586 28.6021C159.587 28.5799 159.589 28.5578 159.59 28.5356L159.591 28.4194C159.591 28.4806 159.589 28.5415 159.586 28.6021ZM154.847 27.1987C154.771 27.1535 154.692 27.1089 154.609 27.0649C154.692 27.1089 154.771 27.1535 154.847 27.1987ZM151.396 25.6489C151.481 25.6908 151.565 25.7318 151.65 25.772C151.565 25.7318 151.481 25.6908 151.396 25.6489Z" fill="#19B27A"/>
<path d="M138.915 16.8286C141.18 16.8287 142.945 17.6518 144.141 19.0132C145.332 20.3698 145.937 22.2364 145.937 24.2925C145.937 24.5267 145.913 24.8998 145.891 25.2065C145.879 25.3615 145.869 25.5028 145.86 25.605C145.856 25.6558 145.852 25.6974 145.85 25.7261C145.848 25.7402 145.847 25.7517 145.847 25.7593C145.846 25.7629 145.846 25.7661 145.846 25.7681V25.771L145.823 26.0288H135.389C135.556 27.1236 136.067 27.9525 136.769 28.522C137.538 29.1466 138.553 29.4711 139.63 29.4712C140.789 29.4712 141.839 29.0765 142.605 28.6733C142.987 28.4726 143.295 28.2716 143.507 28.1216C143.613 28.0467 143.695 27.9847 143.749 27.9419C143.776 27.9206 143.796 27.904 143.81 27.8931C143.816 27.8877 143.821 27.8839 143.824 27.8813C143.826 27.8802 143.827 27.8789 143.827 27.8784V27.8774L144.096 27.6479L145.827 30.8501L145.668 30.9976L145.665 31.0005C145.663 31.0019 145.661 31.0039 145.658 31.0063C145.653 31.0113 145.645 31.0181 145.635 31.0269C145.615 31.0444 145.586 31.0697 145.549 31.1011C145.474 31.1638 145.363 31.2526 145.22 31.3579C144.932 31.5685 144.51 31.8469 143.968 32.1255C142.883 32.6826 141.311 33.2406 139.362 33.2407C134.16 33.2407 130.909 29.4863 130.909 25.0347C130.909 22.6398 131.73 20.5852 133.15 19.1284C134.572 17.671 136.578 16.8286 138.915 16.8286ZM139.127 32.9565L139.362 32.9585C139.242 32.9585 139.122 32.9548 139.004 32.9507C139.045 32.9521 139.086 32.9556 139.127 32.9565ZM138.566 32.9253C138.638 32.9309 138.71 32.9368 138.782 32.9409C138.71 32.9368 138.638 32.9309 138.566 32.9253ZM138.139 32.8823C138.196 32.8894 138.253 32.8958 138.311 32.9019C138.253 32.8958 138.196 32.8894 138.139 32.8823ZM137.718 32.8198C137.769 32.8287 137.821 32.8372 137.873 32.8452C137.821 32.8372 137.769 32.8287 137.718 32.8198ZM137.266 32.73C137.326 32.7435 137.386 32.7567 137.446 32.769C137.386 32.7567 137.326 32.7435 137.266 32.73ZM136.825 32.6187C136.907 32.6418 136.99 32.6642 137.074 32.6851C136.99 32.6642 136.907 32.6418 136.825 32.6187ZM136.463 32.5083C136.531 32.531 136.6 32.5536 136.67 32.5747C136.6 32.5536 136.531 32.531 136.463 32.5083ZM136.087 32.3735C136.143 32.395 136.198 32.4166 136.255 32.437C136.198 32.4166 136.143 32.395 136.087 32.3735ZM135.731 32.2261C135.78 32.2477 135.829 32.2697 135.879 32.2905C135.829 32.2697 135.78 32.2477 135.731 32.2261ZM135.354 32.0474C135.407 32.0745 135.46 32.1014 135.515 32.1274C135.46 32.1014 135.407 32.0745 135.354 32.0474ZM134.992 31.8511C135.053 31.8863 135.114 31.9218 135.177 31.9556C135.114 31.9218 135.053 31.8863 134.992 31.8511ZM134.675 31.6567C134.73 31.6924 134.785 31.7279 134.842 31.7622C134.785 31.7279 134.73 31.6924 134.675 31.6567ZM134.357 31.4409C134.408 31.477 134.458 31.5134 134.509 31.5483C134.458 31.5134 134.408 31.477 134.357 31.4409ZM134.068 31.2212C134.111 31.2552 134.154 31.2896 134.197 31.3228C134.154 31.2896 134.111 31.2552 134.068 31.2212ZM133.758 30.9595C133.806 31.0022 133.853 31.0458 133.902 31.0874C133.853 31.0458 133.806 31.0022 133.758 30.9595ZM133.498 30.7183C133.539 30.7587 133.581 30.7989 133.623 30.8384C133.581 30.7989 133.539 30.7587 133.498 30.7183ZM133.216 30.4253C133.26 30.4737 133.304 30.5225 133.35 30.5698C133.304 30.5225 133.26 30.4737 133.216 30.4253ZM132.968 30.1392C133.015 30.1958 133.061 30.2528 133.109 30.3081C133.061 30.2528 133.015 30.1958 132.968 30.1392ZM132.732 29.8384C132.776 29.8966 132.818 29.9552 132.863 30.0122C132.818 29.9552 132.776 29.8966 132.732 29.8384ZM139.115 29.728C139.285 29.7439 139.457 29.7534 139.63 29.7534L139.419 29.7495C139.317 29.7457 139.216 29.7374 139.115 29.728ZM132.494 29.4985C132.543 29.5721 132.592 29.6455 132.643 29.7173C132.592 29.6454 132.543 29.5721 132.494 29.4985ZM132.316 29.2144C132.354 29.2779 132.392 29.3415 132.432 29.4038C132.392 29.3415 132.354 29.2779 132.316 29.2144ZM132.146 28.9136C132.175 28.9684 132.204 29.0236 132.234 29.0776C132.204 29.0236 132.175 28.9684 132.146 28.9136ZM132.009 28.6479C132.023 28.6775 132.037 28.7074 132.052 28.7368C132.037 28.7074 132.023 28.6775 132.009 28.6479ZM131.798 28.1753C131.829 28.2525 131.861 28.3298 131.895 28.4058C131.861 28.3298 131.829 28.2525 131.798 28.1753ZM131.664 27.8237C131.693 27.9051 131.721 27.9867 131.752 28.0669C131.721 27.9867 131.693 27.9051 131.664 27.8237ZM131.549 27.4722C131.573 27.5529 131.597 27.6337 131.624 27.7134C131.597 27.6337 131.573 27.5529 131.549 27.4722ZM131.472 27.2026C131.484 27.2486 131.495 27.2947 131.508 27.3403C131.495 27.2947 131.484 27.2486 131.472 27.2026ZM135.179 26.4419C135.144 26.2938 135.117 26.1407 135.096 25.9829L135.097 25.9907C135.118 26.1458 135.145 26.2962 135.179 26.4419ZM131.244 25.9634C131.253 26.0499 131.262 26.1364 131.273 26.2222C131.262 26.1364 131.253 26.0499 131.244 25.9634ZM145.643 24.5757C145.644 24.5438 145.647 24.5129 145.648 24.4829L145.652 24.2925C145.652 24.3719 145.647 24.4693 145.643 24.5757ZM138.825 20.3003C137.917 20.3003 137.165 20.5783 136.601 21.0698C136.104 21.5019 135.737 22.1126 135.54 22.8823H141.534C141.457 22.0626 141.161 21.4458 140.734 21.0239C140.258 20.5535 139.596 20.3003 138.825 20.3003ZM132.071 21.1323V21.1313V21.1323ZM140.831 20.7271H140.832H140.831ZM144.509 19.978C144.625 20.162 144.732 20.353 144.831 20.5503C144.732 20.353 144.625 20.162 144.509 19.978ZM136.532 28.6919C136.572 28.7258 136.613 28.7592 136.654 28.7915C136.613 28.7592 136.572 28.7258 136.532 28.6919ZM135.236 26.6636C135.247 26.7021 135.26 26.74 135.271 26.7778C135.26 26.74 135.247 26.7021 135.236 26.6636Z" fill="#19B27A"/>
<path d="M127.233 27.3188C127.233 28.1316 127.374 28.5662 127.572 28.7993C127.758 29.0177 128.042 29.1147 128.5 29.1147C128.64 29.1147 128.775 29.1082 128.875 29.1011C128.925 29.0975 128.965 29.0939 128.993 29.0913C129.007 29.09 129.018 29.0891 129.025 29.0884C129.029 29.088 129.032 29.0876 129.033 29.0874L129.035 29.0864L129.35 29.0522V32.9019L129.11 32.9399H129.108C129.107 32.9401 129.105 32.9406 129.103 32.9409C129.098 32.9416 129.091 32.9426 129.082 32.9438C129.064 32.9464 129.038 32.9503 129.006 32.9546C128.94 32.9633 128.847 32.9744 128.733 32.9858C128.508 33.0087 128.199 33.0327 127.874 33.0327C126.817 33.0327 125.567 32.8996 124.581 32.1675C123.578 31.4226 122.909 30.1068 122.909 27.8833V11.2476H127.233V27.3188ZM127.677 32.7485L127.874 32.7505C127.785 32.7505 127.696 32.7478 127.605 32.7456C127.629 32.7462 127.653 32.7481 127.677 32.7485ZM127.21 32.7271C127.261 32.7305 127.311 32.7333 127.361 32.7358C127.311 32.7333 127.261 32.7305 127.21 32.7271ZM126.782 32.6851C126.849 32.6936 126.916 32.702 126.983 32.7085C126.916 32.702 126.849 32.6936 126.782 32.6851ZM126.384 32.6206C126.452 32.634 126.521 32.6468 126.59 32.6577C126.521 32.6468 126.452 32.634 126.384 32.6206ZM126.088 32.5571C126.104 32.5614 126.121 32.5648 126.138 32.5688C126.121 32.5648 126.104 32.5614 126.088 32.5571ZM125.899 32.5044C125.926 32.5123 125.952 32.5194 125.979 32.5269C125.952 32.5194 125.926 32.5123 125.899 32.5044ZM125.698 32.438C125.726 32.4478 125.754 32.4571 125.781 32.4663C125.754 32.4571 125.726 32.4478 125.698 32.438ZM125.502 32.3628C125.543 32.3797 125.584 32.3951 125.625 32.4106C125.584 32.3951 125.543 32.3797 125.502 32.3628ZM125.331 32.2866C125.359 32.2998 125.387 32.3122 125.415 32.3247C125.387 32.3122 125.359 32.2998 125.331 32.2866ZM125.153 32.1968C125.173 32.2075 125.193 32.2177 125.213 32.228C125.193 32.2177 125.173 32.2075 125.153 32.1968ZM124.966 32.0874C124.993 32.1043 125.02 32.1201 125.048 32.1362C125.02 32.1201 124.993 32.1044 124.966 32.0874ZM124.792 31.9702C124.82 31.9902 124.848 32.0098 124.876 32.0288C124.848 32.0098 124.82 31.9902 124.792 31.9702ZM124.634 31.8491C124.657 31.8681 124.68 31.8866 124.704 31.9048C124.68 31.8866 124.657 31.8681 124.634 31.8491ZM124.464 31.6997C124.489 31.7235 124.514 31.7472 124.54 31.77C124.514 31.7472 124.489 31.7235 124.464 31.6997ZM124.306 31.5396C124.335 31.5711 124.364 31.6024 124.394 31.6323C124.364 31.6024 124.335 31.5711 124.306 31.5396ZM124.158 31.3696C124.187 31.4051 124.216 31.4395 124.245 31.4731C124.216 31.4395 124.187 31.4051 124.158 31.3696ZM124.032 31.2007C124.054 31.2314 124.075 31.2619 124.098 31.2915C124.075 31.2619 124.054 31.2314 124.032 31.2007ZM123.9 31.0005C123.92 31.0333 123.94 31.0656 123.961 31.0972C123.94 31.0656 123.92 31.0333 123.9 31.0005ZM123.783 30.7935C123.802 30.8289 123.821 30.8638 123.84 30.8979C123.821 30.8638 123.802 30.8289 123.783 30.7935ZM123.674 30.5669C123.69 30.6021 123.704 30.6373 123.721 30.6714C123.704 30.6373 123.69 30.6021 123.674 30.5669ZM123.561 30.2886C123.579 30.3397 123.598 30.3899 123.618 30.439C123.598 30.3899 123.579 30.3397 123.561 30.2886ZM123.466 30.0044C123.485 30.0693 123.505 30.1329 123.526 30.1948C123.505 30.1329 123.485 30.0693 123.466 30.0044ZM123.388 29.7124C123.405 29.7849 123.422 29.8561 123.441 29.9253C123.422 29.8561 123.405 29.7849 123.388 29.7124ZM123.333 29.4595C123.344 29.516 123.354 29.5718 123.366 29.6265C123.354 29.5718 123.344 29.516 123.333 29.4595ZM123.272 29.0962C123.282 29.1675 123.292 29.2376 123.304 29.3062C123.292 29.2376 123.282 29.1675 123.272 29.0962ZM123.226 28.6772C123.234 28.7828 123.244 28.8856 123.257 28.9858C123.244 28.8856 123.234 28.7828 123.226 28.6772ZM123.21 28.4429C123.214 28.5109 123.216 28.5781 123.222 28.644C123.216 28.5781 123.214 28.5109 123.21 28.4429ZM127 28.0708C127.008 28.1267 127.019 28.1803 127.029 28.2319C127.019 28.1803 127.008 28.1267 127 28.0708Z" fill="#19B27A"/>
<path d="M108.839 18.0298C108.839 18.2095 108.835 18.3774 108.83 18.5288C108.997 18.3596 109.205 18.1704 109.458 17.9819C110.237 17.4019 111.436 16.8277 113.116 16.8276C115.254 16.8276 117.02 17.6712 118.246 19.1323C119.468 20.5888 120.139 22.639 120.139 25.0337C120.139 27.4948 119.382 29.5466 118.087 30.9868C116.79 32.429 114.968 33.2397 112.878 33.2397C111.225 33.2397 110.032 32.649 109.254 32.0542C109.002 31.8614 108.793 31.6677 108.626 31.4946C108.628 31.5733 108.63 31.6562 108.63 31.7417V32.8843H104.485V11.2476H108.839V18.0298ZM112.731 32.9565L112.878 32.9585C112.805 32.9585 112.733 32.955 112.662 32.9526C112.685 32.9534 112.708 32.956 112.731 32.9565ZM112.389 32.938C112.428 32.941 112.468 32.9435 112.509 32.9458C112.468 32.9435 112.428 32.941 112.389 32.938ZM113.537 32.9282C113.562 32.9261 113.586 32.9247 113.61 32.9224C113.586 32.9247 113.562 32.9261 113.537 32.9282ZM112.113 32.9106C112.155 32.9157 112.197 32.921 112.239 32.9253C112.197 32.921 112.155 32.9157 112.113 32.9106ZM111.875 32.8765C111.903 32.881 111.931 32.8859 111.959 32.8901C111.931 32.8859 111.903 32.881 111.875 32.8765ZM111.606 32.8267C111.638 32.8333 111.669 32.84 111.701 32.8462C111.669 32.84 111.638 32.8333 111.606 32.8267ZM114.28 32.8237C114.291 32.8216 114.302 32.8201 114.313 32.8179C114.302 32.8201 114.291 32.8216 114.28 32.8237ZM111.369 32.771C111.405 32.7801 111.44 32.7888 111.477 32.7974C111.44 32.7888 111.405 32.7801 111.369 32.771ZM114.501 32.7759C114.556 32.7632 114.612 32.7518 114.667 32.7378C114.612 32.7518 114.556 32.7632 114.501 32.7759ZM111.159 32.7124C111.179 32.7184 111.199 32.7241 111.22 32.73C111.199 32.7241 111.179 32.7184 111.159 32.7124ZM114.836 32.6909C114.891 32.6753 114.946 32.66 115 32.6431C114.946 32.66 114.891 32.6753 114.836 32.6909ZM110.933 32.6392C110.951 32.6456 110.97 32.6524 110.988 32.6587C110.97 32.6524 110.951 32.6456 110.933 32.6392ZM110.702 32.5532C110.733 32.5655 110.764 32.5775 110.795 32.5894C110.764 32.5775 110.733 32.5655 110.702 32.5532ZM115.242 32.561C115.266 32.5525 115.291 32.5445 115.314 32.5356C115.291 32.5445 115.266 32.5525 115.242 32.561ZM110.491 32.4634C110.52 32.4763 110.549 32.4898 110.578 32.5024C110.549 32.4898 110.52 32.4763 110.491 32.4634ZM115.478 32.4722C115.538 32.448 115.599 32.4248 115.658 32.3989C115.599 32.4248 115.538 32.448 115.478 32.4722ZM110.327 32.3862C110.348 32.3964 110.369 32.4065 110.39 32.4165C110.369 32.4065 110.348 32.3964 110.327 32.3862ZM115.725 32.3677C115.803 32.3325 115.881 32.2974 115.958 32.2593C115.881 32.2974 115.803 32.3325 115.725 32.3677ZM109.844 32.1147C109.905 32.1533 109.968 32.1936 110.033 32.231C109.968 32.1936 109.905 32.1533 109.844 32.1147ZM116.168 32.1489C116.194 32.1346 116.221 32.1207 116.247 32.106C116.221 32.1207 116.194 32.1346 116.168 32.1489ZM109.567 31.9302C109.612 31.9619 109.656 31.9954 109.703 32.0269C109.656 31.9954 109.612 31.9619 109.567 31.9302ZM116.437 31.9937C116.471 31.9728 116.505 31.9526 116.539 31.9312C116.505 31.9526 116.471 31.9728 116.437 31.9937ZM109.305 31.731C109.337 31.7575 109.37 31.7854 109.404 31.812C109.37 31.7854 109.337 31.7575 109.305 31.731ZM116.725 31.8081C116.757 31.786 116.789 31.7644 116.821 31.7417C116.789 31.7644 116.757 31.786 116.725 31.8081ZM117.008 31.6021C117.034 31.5815 117.061 31.5605 117.087 31.5396C117.061 31.5605 117.034 31.5815 117.008 31.6021ZM117.237 31.4165C117.279 31.3815 117.32 31.3462 117.36 31.3101C117.32 31.3462 117.279 31.3815 117.237 31.4165ZM117.481 31.1978C117.522 31.1595 117.564 31.1219 117.604 31.0825C117.564 31.1219 117.522 31.1595 117.481 31.1978ZM117.744 30.937C117.775 30.9045 117.807 30.8725 117.837 30.8394C117.807 30.8725 117.775 30.9045 117.744 30.937ZM117.993 30.6606C118.015 30.6352 118.037 30.6103 118.059 30.5845C118.037 30.6103 118.015 30.6352 117.993 30.6606ZM118.199 30.4058C118.226 30.3707 118.254 30.336 118.28 30.3003C118.254 30.336 118.226 30.3707 118.199 30.4058ZM118.414 30.1138C118.437 30.0808 118.459 30.0476 118.481 30.0142C118.459 30.0476 118.437 30.0808 118.414 30.1138ZM118.588 29.8481C118.62 29.7971 118.652 29.7459 118.683 29.6938C118.652 29.7459 118.62 29.7971 118.588 29.8481ZM113.169 29.6606C113.048 29.6931 112.924 29.7192 112.799 29.7388C112.924 29.7192 113.048 29.6931 113.169 29.6606ZM118.77 29.5435C118.801 29.487 118.833 29.4303 118.863 29.3726C118.833 29.4303 118.801 29.487 118.77 29.5435ZM112.252 20.6265C111.339 20.6265 110.464 20.956 109.816 21.6655C109.167 22.3763 108.72 23.4967 108.72 25.1226C108.72 26.2497 109.022 27.3537 109.609 28.1675C110.191 28.9725 111.055 29.5005 112.223 29.5005C113.185 29.5004 114.06 29.1119 114.698 28.3774C115.338 27.6409 115.755 26.5386 115.755 25.0933C115.755 23.7021 115.38 22.5819 114.763 21.8159C114.149 21.0549 113.283 20.6265 112.252 20.6265ZM114.032 29.2983V29.2993V29.2983ZM110.283 29.2153C110.159 29.1321 110.041 29.0414 109.93 28.9429C110.041 29.0414 110.159 29.132 110.283 29.2153ZM118.943 29.2144C118.971 29.1581 119 29.1018 119.026 29.0444C119 29.1018 118.971 29.1581 118.943 29.2144ZM119.116 28.8433C119.131 28.8099 119.145 28.7764 119.159 28.7427C119.145 28.7764 119.131 28.8099 119.116 28.8433ZM119.259 28.4917C119.274 28.4507 119.289 28.4092 119.304 28.3677C119.289 28.4092 119.274 28.4507 119.259 28.4917ZM119.362 28.1997C119.385 28.1309 119.409 28.0618 119.431 27.9917C119.409 28.0618 119.385 28.1309 119.362 28.1997ZM119.483 27.813C119.502 27.749 119.519 27.6846 119.536 27.6196C119.519 27.6846 119.502 27.749 119.483 27.813ZM119.583 27.4292C119.598 27.3674 119.612 27.3053 119.626 27.2427C119.612 27.3053 119.598 27.3674 119.583 27.4292ZM119.667 27.0435C119.68 26.9753 119.692 26.9066 119.704 26.8374C119.692 26.9066 119.68 26.9753 119.667 27.0435ZM119.737 26.6333C119.748 26.5638 119.758 26.4938 119.767 26.4233C119.758 26.4938 119.748 26.5638 119.737 26.6333ZM119.791 26.2114C119.799 26.1402 119.806 26.0687 119.812 25.9966C119.806 26.0687 119.799 26.1402 119.791 26.2114ZM119.825 25.8208C119.832 25.7293 119.838 25.6373 119.842 25.5444C119.838 25.6373 119.832 25.7293 119.825 25.8208ZM119.854 25.0337C119.854 25.1538 119.85 25.2731 119.847 25.3911C119.848 25.347 119.852 25.3027 119.853 25.2583L119.854 25.0337ZM115.982 24.187C116.018 24.4763 116.038 24.7787 116.038 25.0933L116.034 24.8267C116.027 24.6069 116.008 24.3937 115.982 24.187ZM108.756 22.9614C108.714 23.0852 108.677 23.2139 108.643 23.3472C108.677 23.2139 108.714 23.0852 108.756 22.9614ZM109.124 22.1372H109.125H109.124ZM110.028 21.0835H110.029H110.028ZM110.364 17.7485C109.117 18.3935 108.561 19.2964 108.555 19.3062C108.555 19.3062 109.111 18.397 110.364 17.7485ZM108.529 18.8667C108.534 18.7896 108.538 18.7039 108.542 18.6108C108.538 18.7039 108.534 18.7896 108.529 18.8667ZM108.547 18.4575C108.548 18.4058 108.552 18.3524 108.553 18.2974L108.555 18.0298L108.547 18.4575ZM111.033 17.4575C110.845 17.5252 110.668 17.6004 110.502 17.6802C110.668 17.6004 110.845 17.5252 111.033 17.4575ZM114.587 17.2573C114.82 17.3062 115.047 17.367 115.267 17.439C115.047 17.367 114.82 17.3062 114.587 17.2573ZM111.402 17.3403C111.357 17.3533 111.311 17.3656 111.267 17.3794C111.311 17.3656 111.357 17.3533 111.402 17.3403ZM112.497 17.1382C112.231 17.1627 111.979 17.2015 111.742 17.2534C111.979 17.2015 112.231 17.1627 112.497 17.1382ZM113.498 17.1196V17.1187L113.116 17.1099L113.498 17.1196ZM110.377 29.2769C110.345 29.2571 110.314 29.2361 110.283 29.2153C110.314 29.2362 110.345 29.2571 110.377 29.2769Z" fill="#19B27A"/>
<path d="M90.1719 18.0298C90.1719 18.2095 90.1683 18.3774 90.1631 18.5288C90.3296 18.3595 90.5386 18.1705 90.792 17.9819C91.5715 17.402 92.7705 16.8277 94.4502 16.8276C96.5883 16.8277 98.3542 17.671 99.5801 19.1323C100.802 20.5888 101.472 22.639 101.472 25.0337C101.472 27.4946 100.716 29.5466 99.4209 30.9868C98.124 32.429 96.301 33.2397 94.2109 33.2397C92.5581 33.2396 91.3661 32.6488 90.5879 32.0542C90.3356 31.8614 90.127 31.6677 89.96 31.4946C89.962 31.5733 89.9639 31.6562 89.9639 31.7417V32.8843H85.8184V11.2476H90.1719V18.0298ZM94.0645 32.9565L94.2109 32.9585C94.1384 32.9585 94.0668 32.955 93.9961 32.9526C94.0188 32.9534 94.0415 32.956 94.0645 32.9565ZM93.7256 32.938C93.7634 32.9409 93.8015 32.9436 93.8398 32.9458C93.8015 32.9436 93.7634 32.9409 93.7256 32.938ZM94.8711 32.9282C94.8952 32.9261 94.9193 32.9247 94.9434 32.9224C94.9193 32.9247 94.8952 32.9261 94.8711 32.9282ZM93.4463 32.9106C93.4876 32.9157 93.5292 32.921 93.5713 32.9253C93.5292 32.921 93.4876 32.9157 93.4463 32.9106ZM93.208 32.8765C93.2359 32.881 93.2638 32.8859 93.292 32.8901C93.2638 32.8859 93.2359 32.881 93.208 32.8765ZM92.9395 32.8267C92.9708 32.8333 93.0023 32.84 93.0342 32.8462C93.0023 32.84 92.9708 32.8333 92.9395 32.8267ZM92.6943 32.769C92.7329 32.7791 92.7721 32.788 92.8115 32.7974C92.7721 32.788 92.733 32.7791 92.6943 32.769ZM95.876 32.7661C95.916 32.7567 95.9564 32.7489 95.9961 32.7388C95.9564 32.7489 95.916 32.7567 95.876 32.7661ZM92.4863 32.7104C92.5109 32.7178 92.5357 32.7248 92.5605 32.7319C92.5357 32.7248 92.5109 32.7178 92.4863 32.7104ZM96.2002 32.6821C96.2446 32.6693 96.289 32.6568 96.333 32.6431C96.289 32.6568 96.2446 32.6693 96.2002 32.6821ZM92.2656 32.6392C92.2841 32.6456 92.3026 32.6524 92.3213 32.6587C92.3026 32.6524 92.2841 32.6456 92.2656 32.6392ZM92.0352 32.5532C92.0658 32.5655 92.0967 32.5775 92.1279 32.5894C92.0967 32.5775 92.0658 32.5655 92.0352 32.5532ZM96.5283 32.5776C96.5704 32.5631 96.6126 32.5491 96.6543 32.5337C96.6126 32.5491 96.5704 32.5631 96.5283 32.5776ZM91.8242 32.4634C91.853 32.4763 91.8817 32.4898 91.9111 32.5024C91.8817 32.4898 91.853 32.4763 91.8242 32.4634ZM96.793 32.479C96.8594 32.4527 96.9259 32.4273 96.9912 32.3989C96.9259 32.4273 96.8594 32.4527 96.793 32.479ZM91.6602 32.3862C91.6808 32.3964 91.7016 32.4065 91.7227 32.4165C91.7016 32.4065 91.6808 32.3964 91.6602 32.3862ZM97.0576 32.3677C97.1361 32.3325 97.2143 32.2974 97.291 32.2593C97.2143 32.2974 97.1361 32.3325 97.0576 32.3677ZM91.1768 32.1147C91.2384 32.1533 91.3006 32.1936 91.3662 32.231C91.3006 32.1936 91.2384 32.1533 91.1768 32.1147ZM97.501 32.1489C97.525 32.1358 97.5494 32.1233 97.5732 32.1099C97.5494 32.1233 97.525 32.1358 97.501 32.1489ZM90.8721 31.9097C90.9256 31.9484 90.9798 31.9885 91.0371 32.0269C90.9798 31.9885 90.9256 31.9484 90.8721 31.9097ZM97.7891 31.9819C97.8165 31.9651 97.8439 31.9484 97.8711 31.9312C97.8439 31.9484 97.8165 31.9651 97.7891 31.9819ZM90.6514 31.7417C90.68 31.7648 90.7084 31.7889 90.7383 31.812C90.7084 31.7889 90.68 31.7648 90.6514 31.7417ZM98.0576 31.8081C98.0951 31.7824 98.133 31.7575 98.1699 31.731C98.133 31.7575 98.0951 31.7824 98.0576 31.8081ZM89.6699 31.3286H89.6709H89.6699ZM98.3164 31.6206C98.355 31.5912 98.3937 31.562 98.4316 31.5317C98.3937 31.562 98.355 31.5912 98.3164 31.6206ZM98.5703 31.4165C98.6089 31.3839 98.6477 31.3515 98.6855 31.3179C98.6477 31.3515 98.6089 31.3839 98.5703 31.4165ZM98.8301 31.1831C98.8652 31.1499 98.9011 31.1175 98.9355 31.0835C98.9011 31.1175 98.8652 31.1499 98.8301 31.1831ZM89.7451 30.8003C89.7811 30.8511 89.834 30.918 89.9004 30.9995C89.7529 30.8185 89.6797 30.7026 89.6797 30.7026L89.7451 30.8003ZM99.0879 30.9263C99.1148 30.8979 99.1425 30.8702 99.1689 30.8413C99.1425 30.8702 99.1148 30.8979 99.0879 30.9263ZM99.3018 30.6899C99.3358 30.6505 99.3701 30.6112 99.4033 30.5708C99.3701 30.6112 99.3358 30.6505 99.3018 30.6899ZM99.5234 30.4185C99.5542 30.3787 99.5852 30.3389 99.6152 30.2983C99.5852 30.3389 99.5542 30.3787 99.5234 30.4185ZM99.7148 30.1587C99.753 30.1045 99.7913 30.0503 99.8281 29.9946C99.7913 30.0503 99.753 30.1045 99.7148 30.1587ZM99.9033 29.8774C99.9414 29.8173 99.979 29.7565 100.016 29.6948C99.979 29.7565 99.9414 29.8173 99.9033 29.8774ZM100.106 29.5366C100.135 29.4862 100.163 29.4357 100.19 29.3843C100.163 29.4357 100.135 29.4862 100.106 29.5366ZM93.585 20.6265C92.6716 20.6265 91.7974 20.956 91.1494 21.6655C90.5004 22.3763 90.0528 23.4967 90.0527 25.1226C90.0527 26.2497 90.3545 27.3537 90.9424 28.1675C91.524 28.9726 92.3883 29.5005 93.5557 29.5005C94.518 29.5004 95.3929 29.1119 96.0312 28.3774C96.6712 27.6409 97.0879 26.5386 97.0879 25.0933C97.0879 23.702 96.7133 22.582 96.0957 21.8159C95.482 21.0549 94.6162 20.6265 93.585 20.6265ZM91.3467 29.0142C91.4904 29.1333 91.6441 29.2403 91.8076 29.3345C91.6441 29.2403 91.4904 29.1333 91.3467 29.0142ZM100.276 29.2144C100.3 29.1661 100.325 29.1179 100.348 29.0688C100.325 29.1179 100.3 29.1661 100.276 29.2144ZM100.441 28.8628C100.462 28.8156 100.482 28.7681 100.502 28.7202C100.482 28.7681 100.462 28.8156 100.441 28.8628ZM90.9082 28.5806C90.9718 28.6551 91.0375 28.7275 91.1064 28.7964C91.0375 28.7275 90.9718 28.6551 90.9082 28.5806ZM96.4932 28.2456C96.4151 28.3568 96.3327 28.4624 96.2461 28.562L96.373 28.4087C96.4143 28.3559 96.4541 28.3013 96.4932 28.2456ZM100.585 28.5112C100.603 28.4637 100.62 28.4158 100.638 28.3677C100.62 28.4158 100.603 28.4637 100.585 28.5112ZM100.709 28.1616C100.726 28.1118 100.742 28.0617 100.758 28.0112C100.742 28.0618 100.726 28.1118 100.709 28.1616ZM100.821 27.7935C100.837 27.7384 100.853 27.6832 100.867 27.6274C100.853 27.6832 100.837 27.7384 100.821 27.7935ZM100.916 27.4292C100.931 27.3674 100.945 27.3053 100.959 27.2427C100.945 27.3053 100.931 27.3674 100.916 27.4292ZM101 27.0435C101.013 26.9753 101.025 26.9066 101.037 26.8374C101.025 26.9066 101.013 26.9753 101 27.0435ZM89.8564 26.1851C89.9002 26.4464 89.9613 26.7026 90.0381 26.9507C89.9613 26.7027 89.9002 26.4464 89.8564 26.1851ZM101.07 26.6333C101.081 26.5638 101.091 26.4938 101.1 26.4233C101.091 26.4938 101.081 26.5638 101.07 26.6333ZM101.124 26.2114C101.132 26.1402 101.139 26.0687 101.146 25.9966C101.139 26.0687 101.132 26.1402 101.124 26.2114ZM101.159 25.8091C101.164 25.7388 101.168 25.6682 101.172 25.5972C101.168 25.6682 101.164 25.7388 101.159 25.8091ZM101.188 25.0337C101.188 25.1409 101.185 25.2475 101.182 25.353C101.183 25.3215 101.185 25.29 101.186 25.2583L101.188 25.0337ZM97.3555 24.5981C97.3659 24.7596 97.3721 24.9247 97.3721 25.0933L97.3672 24.8267C97.3646 24.7497 97.3604 24.6735 97.3555 24.5981ZM96.9922 22.8423C97.0309 22.9448 97.0675 23.0498 97.1006 23.1577C97.0675 23.0498 97.0309 22.9448 96.9922 22.8423ZM91.7178 17.7388C90.4568 18.3843 89.8947 19.2964 89.8887 19.3062C89.8934 19.2984 90.4553 18.3851 91.7178 17.7388ZM89.8613 18.8735C89.8661 18.7947 89.8711 18.7067 89.875 18.6108C89.8711 18.7067 89.8661 18.7947 89.8613 18.8735ZM89.8818 18.4058C89.8828 18.3704 89.885 18.3342 89.8857 18.2974L89.8887 18.0298L89.8818 18.4058ZM92.3662 17.4575C92.1775 17.5252 92.0006 17.6003 91.835 17.6802C92.0006 17.6004 92.1775 17.5252 92.3662 17.4575ZM92.7354 17.3403C92.6896 17.3533 92.6442 17.3656 92.5996 17.3794C92.6442 17.3656 92.6896 17.3533 92.7354 17.3403ZM93.8096 17.1401C93.5509 17.1648 93.3061 17.2028 93.0752 17.2534C93.3061 17.2028 93.5509 17.1648 93.8096 17.1401ZM94.8311 17.1196V17.1187L94.4502 17.1099L94.8311 17.1196ZM90.1924 27.3843C90.2111 27.4303 90.231 27.4758 90.251 27.521C90.231 27.4758 90.2111 27.4303 90.1924 27.3843ZM96.8623 22.5288C96.8438 22.4885 96.8241 22.449 96.8047 22.4097C96.8241 22.449 96.8438 22.4885 96.8623 22.5288Z" fill="#19B27A"/>
<path d="M75.8848 16.8286C78.1501 16.8287 79.9151 17.6518 81.1104 19.0132C82.3013 20.3698 82.9062 22.2364 82.9062 24.2925C82.9062 24.5267 82.8826 24.8998 82.8604 25.2065C82.8491 25.3616 82.8385 25.5028 82.8301 25.605C82.8259 25.6558 82.8218 25.6974 82.8193 25.7261C82.8181 25.7402 82.8171 25.7517 82.8164 25.7593C82.8161 25.7629 82.8156 25.7661 82.8154 25.7681V25.771L82.793 26.0288H72.3584C72.5258 27.1236 73.0367 27.9525 73.7383 28.522C74.5079 29.1466 75.5226 29.4711 76.5996 29.4712C77.7591 29.4712 78.8085 29.0765 79.5752 28.6733C79.9569 28.4726 80.2649 28.2716 80.4766 28.1216C80.5823 28.0467 80.6644 27.9847 80.7188 27.9419C80.7458 27.9206 80.7661 27.904 80.7793 27.8931C80.7858 27.8877 80.7909 27.8839 80.7939 27.8813L80.7979 27.8774L81.0654 27.6479L82.7969 30.8501L82.6377 30.9976L82.6348 31.0005C82.6332 31.0019 82.6306 31.0039 82.6279 31.0063C82.6226 31.0112 82.6152 31.0183 82.6055 31.0269C82.5856 31.0444 82.5561 31.0697 82.5186 31.1011C82.4434 31.1638 82.3332 31.2526 82.1895 31.3579C81.9021 31.5685 81.4799 31.8469 80.9375 32.1255C79.8527 32.6826 78.2804 33.2407 76.332 33.2407C71.1296 33.2407 67.8791 29.4863 67.8789 25.0347C67.8789 22.6398 68.6994 20.5852 70.1201 19.1284C71.5414 17.671 73.548 16.8286 75.8848 16.8286ZM76.0967 32.9565L76.332 32.9585C76.2116 32.9585 76.0919 32.9548 75.9736 32.9507C76.0145 32.9521 76.0555 32.9556 76.0967 32.9565ZM75.5361 32.9253C75.6077 32.9309 75.6795 32.9368 75.752 32.9409C75.6795 32.9368 75.6077 32.9309 75.5361 32.9253ZM75.1084 32.8823C75.1654 32.8894 75.2227 32.8958 75.2803 32.9019C75.2227 32.8958 75.1654 32.8894 75.1084 32.8823ZM74.6875 32.8198C74.739 32.8287 74.7907 32.8372 74.8428 32.8452C74.7907 32.8372 74.739 32.8287 74.6875 32.8198ZM74.2354 32.73C74.2952 32.7435 74.3554 32.7567 74.416 32.769C74.3554 32.7567 74.2952 32.7435 74.2354 32.73ZM73.7949 32.6187C73.8772 32.6418 73.9601 32.6642 74.0439 32.6851C73.9601 32.6642 73.8772 32.6418 73.7949 32.6187ZM73.4326 32.5083C73.5011 32.531 73.57 32.5536 73.6396 32.5747C73.57 32.5536 73.5012 32.531 73.4326 32.5083ZM73.0566 32.3735C73.1123 32.395 73.1681 32.4166 73.2246 32.437C73.1681 32.4166 73.1123 32.395 73.0566 32.3735ZM72.7012 32.2261C72.7501 32.2477 72.799 32.2697 72.8486 32.2905C72.799 32.2697 72.7501 32.2477 72.7012 32.2261ZM72.3232 32.0474C72.3766 32.0745 72.4301 32.1014 72.4844 32.1274C72.4301 32.1014 72.3766 32.0745 72.3232 32.0474ZM71.9619 31.8511C72.023 31.8863 72.0841 31.9218 72.1465 31.9556C72.0841 31.9218 72.023 31.8863 71.9619 31.8511ZM71.627 31.646C71.6885 31.686 71.7504 31.7258 71.8135 31.7642C71.7504 31.7258 71.6885 31.686 71.627 31.646ZM71.3174 31.4341C71.3741 31.475 71.4312 31.5157 71.4893 31.5552C71.4312 31.5156 71.3741 31.475 71.3174 31.4341ZM71.0293 31.2134C71.0757 31.2505 71.1215 31.2886 71.1689 31.3247C71.1215 31.2886 71.0757 31.2505 71.0293 31.2134ZM70.749 30.978C70.7877 31.0122 70.8258 31.0471 70.8652 31.0806C70.8258 31.0471 70.7877 31.0122 70.749 30.978ZM70.4941 30.7427C70.5225 30.7702 70.5502 30.7985 70.5791 30.8257C70.5502 30.7985 70.5225 30.7702 70.4941 30.7427ZM70.1855 30.4253C70.2292 30.473 70.2724 30.5212 70.3174 30.5679C70.2724 30.5212 70.2292 30.473 70.1855 30.4253ZM69.9375 30.1392C69.9842 30.1958 70.0307 30.2528 70.0791 30.3081C70.0307 30.2528 69.9842 30.1958 69.9375 30.1392ZM69.7021 29.8384C69.7454 29.8966 69.7881 29.9552 69.833 30.0122C69.7881 29.9552 69.7454 29.8966 69.7021 29.8384ZM76.085 29.728C76.1856 29.7374 76.2868 29.7457 76.3887 29.7495L76.1846 29.7378C76.1513 29.7353 76.1181 29.7311 76.085 29.728ZM69.4639 29.4985C69.5124 29.5721 69.5612 29.6455 69.6123 29.7173C69.5612 29.6455 69.5124 29.5721 69.4639 29.4985ZM69.2861 29.2144C69.3241 29.2779 69.3616 29.3415 69.4014 29.4038C69.3616 29.3415 69.3241 29.2779 69.2861 29.2144ZM69.1113 28.9058C69.1428 28.9645 69.1731 29.0237 69.2061 29.0815C69.1731 29.0237 69.1428 28.9645 69.1113 28.9058ZM68.9355 28.5571C68.9666 28.6229 68.9974 28.6887 69.0303 28.7534C68.9974 28.6887 68.9666 28.6229 68.9355 28.5571ZM68.7676 28.1753C68.7991 28.2525 68.8304 28.3298 68.8643 28.4058C68.8304 28.3298 68.7991 28.2525 68.7676 28.1753ZM68.6338 27.8237C68.6626 27.9051 68.6904 27.9867 68.7217 28.0669C68.6904 27.9867 68.6626 27.9051 68.6338 27.8237ZM68.5186 27.4722C68.543 27.5529 68.5669 27.6337 68.5938 27.7134C68.5669 27.6337 68.543 27.5529 68.5186 27.4722ZM68.4287 27.1489C68.4452 27.2132 68.4605 27.2777 68.4785 27.3413C68.4605 27.2777 68.4452 27.2132 68.4287 27.1489ZM68.2139 25.9634C68.2232 26.0499 68.2313 26.1364 68.2432 26.2222C68.2313 26.1364 68.2232 26.0499 68.2139 25.9634ZM82.6123 24.5757C82.6137 24.5438 82.6171 24.5129 82.6182 24.4829L82.6221 24.2925C82.6221 24.3719 82.617 24.4693 82.6123 24.5757ZM75.7949 20.3003C74.8865 20.3003 74.1351 20.5783 73.5703 21.0698C73.0741 21.5019 72.7069 22.1126 72.5098 22.8823H78.5039C78.4269 22.0626 78.1308 21.4458 77.7041 21.0239C77.2282 20.5535 76.5661 20.3003 75.7949 20.3003ZM69.041 21.1323V21.1313V21.1323ZM76.9609 20.2222H76.9619H76.9609ZM77.4326 17.2544C77.6744 17.3017 77.9082 17.36 78.1338 17.4292C77.9082 17.36 77.6744 17.3017 77.4326 17.2544ZM73.502 28.6919C73.5422 28.7258 73.5826 28.7592 73.624 28.7915C73.5826 28.7592 73.5421 28.7258 73.502 28.6919ZM72.2061 26.6636C72.217 26.7021 72.2294 26.74 72.2412 26.7778C72.2294 26.74 72.217 26.7021 72.2061 26.6636Z" fill="#19B27A"/>
<path d="M59.3652 11.2476C61.4157 11.2476 63.1755 11.9631 64.4229 13.2241C65.67 14.4852 66.3867 16.2738 66.3867 18.3862C66.3866 20.498 65.6703 22.3066 64.4248 23.5894C63.1785 24.8728 61.4186 25.6127 59.3652 25.6128H55.3252V32.8843H50.9121V11.2476H59.3652ZM59.3652 25.3306L59.5498 25.3286C59.5782 25.328 59.6065 25.3256 59.6348 25.3247C59.5455 25.3277 59.4557 25.3306 59.3652 25.3306ZM59.8291 25.3159C59.8798 25.313 59.9302 25.309 59.9805 25.3052C59.9302 25.309 59.8798 25.313 59.8291 25.3159ZM60.1904 25.2866C60.2365 25.2818 60.2824 25.2766 60.3281 25.271C60.2824 25.2766 60.2365 25.2818 60.1904 25.2866ZM60.5283 25.2437C60.5787 25.2361 60.6288 25.2278 60.6787 25.2192C60.6288 25.2278 60.5787 25.236 60.5283 25.2437ZM60.8613 25.1851C60.9164 25.1741 60.971 25.1621 61.0254 25.1499C60.971 25.1621 60.9164 25.1741 60.8613 25.1851ZM61.1816 25.1138C61.2463 25.0978 61.3104 25.0807 61.374 25.063C61.3103 25.0807 61.2463 25.0978 61.1816 25.1138ZM61.502 25.0259C61.5548 25.0101 61.607 24.9931 61.6592 24.9761C61.607 24.9931 61.5548 25.0101 61.502 25.0259ZM61.8369 24.9165C61.8789 24.9015 61.9204 24.8854 61.9619 24.8696C61.9204 24.8854 61.8789 24.9015 61.8369 24.9165ZM62.124 24.8062C62.1862 24.7805 62.2476 24.7535 62.3086 24.7261C62.2476 24.7535 62.1862 24.7805 62.124 24.8062ZM62.4189 24.6763C62.4674 24.6534 62.5148 24.6289 62.5625 24.605C62.5148 24.6289 62.4674 24.6534 62.4189 24.6763ZM62.7188 24.5249C62.7654 24.4998 62.8115 24.4739 62.8574 24.4478C62.8115 24.4739 62.7654 24.4998 62.7188 24.5249ZM62.9854 24.3735C63.0498 24.3347 63.113 24.2944 63.1758 24.2534C63.113 24.2944 63.0498 24.3347 62.9854 24.3735ZM63.2549 24.2017C63.3006 24.1708 63.3449 24.138 63.3896 24.106C63.3449 24.138 63.3006 24.1708 63.2549 24.2017ZM63.7559 23.8247C64.1589 23.4877 64.5163 23.0995 64.8242 22.6665C64.5164 23.0995 64.1589 23.4877 63.7559 23.8247ZM64.8994 22.5571C64.9359 22.5035 64.9728 22.45 65.0078 22.395C64.9728 22.45 64.9359 22.5035 64.8994 22.5571ZM65.1025 22.2397C65.1242 22.2035 65.146 22.1672 65.167 22.1304C65.146 22.1672 65.1242 22.2035 65.1025 22.2397ZM59.1533 21.98C58.991 21.9969 58.823 22.0063 58.6494 22.0063L58.8564 22.0024C58.9575 21.9983 59.0564 21.9901 59.1533 21.98ZM65.2734 21.9351C65.2879 21.9075 65.3023 21.8799 65.3164 21.8521C65.3023 21.8799 65.2879 21.9075 65.2734 21.9351ZM55.3252 21.7251H58.6494C59.705 21.7251 60.5123 21.3898 61.0566 20.8247C61.6025 20.2579 61.914 19.4289 61.9141 18.3862C61.9141 17.3593 61.6031 16.544 61.0645 15.9878C60.5272 15.4333 59.7343 15.106 58.709 15.106H55.3252V21.7251ZM65.4277 21.6226C65.4379 21.6005 65.448 21.5784 65.458 21.5562C65.448 21.5784 65.4379 21.6005 65.4277 21.6226ZM65.543 21.3579C65.5605 21.3152 65.578 21.2723 65.5947 21.229C65.578 21.2723 65.5605 21.3152 65.543 21.3579ZM65.6504 21.0776C65.6669 21.0319 65.6836 20.9862 65.6992 20.9399C65.6836 20.9862 65.6669 21.0319 65.6504 21.0776ZM65.7705 20.7153C65.7803 20.6829 65.7904 20.6504 65.7998 20.6177C65.7904 20.6504 65.7803 20.6829 65.7705 20.7153ZM65.8594 20.3921C65.8678 20.3586 65.8767 20.3252 65.8848 20.2915C65.8767 20.3252 65.8678 20.3586 65.8594 20.3921ZM65.9316 20.0786C65.9433 20.0226 65.9554 19.9664 65.9658 19.9097C65.9554 19.9664 65.9433 20.0226 65.9316 20.0786ZM65.9883 19.7739C65.9996 19.706 66.0109 19.6377 66.0205 19.5688C66.0109 19.6377 65.9996 19.706 65.9883 19.7739ZM66.04 19.4175C66.0506 19.3302 66.0605 19.2424 66.0684 19.1538C66.0605 19.2424 66.0506 19.3302 66.04 19.4175ZM62.1641 18.9702C62.1591 19.013 62.1525 19.0552 62.1465 19.0972C62.1701 18.9333 62.1867 18.7641 62.1934 18.5894L62.1641 18.9702ZM66.0732 19.0825C66.0798 19.0004 66.0856 18.9178 66.0898 18.8345C66.0856 18.9178 66.0798 19.0004 66.0732 19.0825ZM66.085 17.8706C66.0949 18.04 66.1025 18.2119 66.1025 18.3862C66.1025 18.4836 66.0988 18.5803 66.0957 18.6763C66.0968 18.6432 66.0999 18.6099 66.1006 18.5767L66.1025 18.3862C66.1025 18.212 66.0949 18.0399 66.085 17.8706ZM65.9375 16.7271C65.9277 16.6791 65.9199 16.6309 65.9092 16.5835C65.9199 16.6309 65.9277 16.6791 65.9375 16.7271ZM65.7686 16.0601C65.7534 16.0104 65.7397 15.9606 65.7236 15.9116C65.7397 15.9606 65.7534 16.0104 65.7686 16.0601ZM65.5762 15.5103C65.5487 15.4415 65.5207 15.3734 65.4912 15.3062C65.5207 15.3734 65.5487 15.4415 65.5762 15.5103ZM65.3838 15.0757C65.3737 15.0548 65.3638 15.0339 65.3535 15.0132C65.3638 15.0339 65.3737 15.0548 65.3838 15.0757ZM65.2637 14.8403C65.2407 14.7975 65.2182 14.7545 65.1943 14.7124C65.2182 14.7545 65.2407 14.7975 65.2637 14.8403ZM65.1006 14.5552C65.0775 14.517 65.0551 14.4785 65.0312 14.4409C65.0551 14.4785 65.0775 14.517 65.1006 14.5552ZM64.959 14.3325C64.9219 14.2768 64.8854 14.2208 64.8467 14.1665C64.8854 14.2208 64.9219 14.2768 64.959 14.3325ZM64.6074 13.855C64.5561 13.792 64.5038 13.7301 64.4502 13.6694C64.5038 13.7301 64.5561 13.792 64.6074 13.855ZM64.3867 13.6001C64.3389 13.5476 64.2908 13.4955 64.2412 13.4448C64.2908 13.4955 64.3389 13.5476 64.3867 13.6001ZM64.1523 13.3569C64.1068 13.3123 64.0616 13.2673 64.0146 13.2241C64.0616 13.2673 64.1068 13.3123 64.1523 13.3569ZM63.9287 13.1479C63.8765 13.1018 63.8243 13.0556 63.7705 13.0112C63.8243 13.0556 63.8765 13.1018 63.9287 13.1479ZM63.7061 12.9595C63.6447 12.9103 63.5828 12.8618 63.5195 12.8149C63.5828 12.8618 63.6447 12.9103 63.7061 12.9595ZM63.4521 12.7671C63.3909 12.723 63.3287 12.6801 63.2656 12.6382C63.3287 12.6801 63.3909 12.723 63.4521 12.7671ZM63.1758 12.5796C63.1185 12.543 63.0607 12.507 63.002 12.4722C63.0607 12.507 63.1185 12.543 63.1758 12.5796ZM62.8926 12.4097C62.8364 12.3779 62.78 12.3461 62.7227 12.3159C62.78 12.3461 62.8364 12.3779 62.8926 12.4097ZM62.6162 12.2622C62.5542 12.2311 62.4921 12.1997 62.4287 12.1704C62.4921 12.1997 62.5542 12.2311 62.6162 12.2622ZM62.3242 12.1245C62.2597 12.0961 62.1948 12.068 62.1289 12.0415C62.1948 12.068 62.2597 12.0961 62.3242 12.1245ZM62.0352 12.0054C61.962 11.9772 61.8882 11.95 61.8135 11.9243C61.8882 11.95 61.962 11.9772 62.0352 12.0054ZM61.7178 11.8921C61.6461 11.8686 61.574 11.846 61.501 11.8247C61.574 11.846 61.6461 11.8686 61.7178 11.8921ZM61.4033 11.7974C61.3249 11.7758 61.2459 11.7549 61.166 11.7358C61.2459 11.7549 61.3249 11.7758 61.4033 11.7974ZM61.0752 11.7153C61.0006 11.6986 60.9254 11.683 60.8496 11.6685C60.9254 11.683 61.0006 11.6986 61.0752 11.7153ZM60.7158 11.644C60.6463 11.6321 60.5764 11.6209 60.5059 11.6108C60.5763 11.6209 60.6463 11.6321 60.7158 11.644ZM60.374 11.5933C60.3048 11.5846 60.2352 11.5767 60.165 11.5698C60.2352 11.5767 60.3048 11.5846 60.374 11.5933ZM60.0195 11.5571C59.9422 11.551 59.8645 11.5455 59.7861 11.5415C59.8645 11.5455 59.9422 11.551 60.0195 11.5571ZM59.6748 11.5366C59.6333 11.5351 59.5916 11.5327 59.5498 11.5317L59.3652 11.5298C59.4693 11.5298 59.5724 11.5328 59.6748 11.5366ZM63.5137 24.0171C63.5844 23.9638 63.6534 23.9083 63.7217 23.8521C63.6534 23.9083 63.5844 23.9637 63.5137 24.0171ZM61.7188 20.3999C61.7361 20.369 61.7531 20.3378 61.7695 20.3062C61.7531 20.3378 61.7361 20.369 61.7188 20.3999ZM61.7939 20.2573C61.8105 20.2241 61.8272 20.1908 61.8428 20.1567C61.8272 20.1908 61.8105 20.2241 61.7939 20.2573ZM62.04 19.6108C62.0488 19.5789 62.0574 19.5467 62.0654 19.5142C62.0574 19.5467 62.0488 19.5789 62.04 19.6108ZM66.0615 17.5542C66.0527 17.463 66.0439 17.3724 66.0322 17.2827C66.0439 17.3724 66.0527 17.463 66.0615 17.5542ZM66.002 17.0815C65.9937 17.0286 65.9859 16.9757 65.9766 16.9233C65.9859 16.9757 65.9937 17.0286 66.002 17.0815ZM64.7979 14.1011C64.7486 14.0339 64.6983 13.9677 64.6465 13.9028C64.6983 13.9677 64.7486 14.0339 64.7979 14.1011Z" fill="#19B27A"/>
</svg>
