<svg width="41" height="49" viewBox="0 0 41 49" fill="none" xmlns="http://www.w3.org/2000/svg">
<path d="M14.7648 14.0251C14.712 14.1962 14.5989 14.3406 14.448 14.4356L1.64861 22.4712C1.12819 22.798 0.456917 22.3913 0.502172 21.7756C0.788782 17.7882 2.2784 14.5231 3.23251 12.4363C4.24697 10.2202 5.26519 7.99279 6.67938 6.06563C6.95845 5.68552 7.51282 5.65131 7.83714 5.99721L14.6027 13.2801C14.7874 13.4816 14.8516 13.7667 14.7686 14.0289L14.7648 14.0251Z" fill="#FCCD06"/>
<path d="M22.7374 24.8507L18.1365 31.1795C17.4237 32.1602 16.0887 32.4339 15.0517 31.8105L4.5753 25.5159C4.09258 25.227 4.08504 24.5238 4.56398 24.2235C8.42568 21.7642 12.2874 19.3049 16.1491 16.8494C16.794 16.4389 17.6349 16.5491 18.1554 17.1079L22.5563 21.8478C23.3257 22.6765 23.4011 23.9384 22.7374 24.8507Z" fill="#FFFAE6"/>
<path d="M13.4602 37.6108C11.8386 39.842 10.217 42.0694 8.59541 44.3007C7.8374 45.346 6.27612 45.2814 5.58977 44.1866C4.68468 42.746 3.76451 40.9785 3.0065 38.8955C1.93171 35.9383 1.50557 33.1939 1.37735 30.9398C1.29061 29.446 2.91976 28.4881 4.1718 29.294C7.10579 31.1945 10.0435 33.0913 12.9775 34.9918C13.8562 35.562 14.0787 36.7593 13.4602 37.6108Z" fill="#FFFAE6"/>
<path d="M38.1426 34.1819L28.2169 23.497C27.9717 23.2309 27.9453 22.8242 28.1603 22.5315L35.9667 11.7972C36.2872 11.3525 36.9623 11.3943 37.23 11.8694C40.4619 17.6357 40.4921 23.7707 40.4996 25.9601C40.5072 27.2297 40.4355 30.1907 39.4173 33.8588C39.2589 34.4289 38.5462 34.6114 38.1426 34.1781V34.1819Z" fill="#FFFAE6"/>
<path d="M18.5975 1.39825L16.3663 7.82308C16.1248 8.53156 14.8788 8.784 14.0997 8.08937L10.0074 3.68357C9.7 3.37404 9.82102 2.7361 10.198 2.50223C10.3883 2.3853 10.5859 2.26837 10.7872 2.15831C12.9503 0.978663 15.4024 0.479978 17.9131 0.500614C18.4035 0.504053 18.7476 0.958028 18.5975 1.39825Z" fill="#FF74D7"/>
<path d="M33.9303 9.44491L26.8782 19.1491C26.2635 19.993 25.0416 20.069 24.3326 19.305L18.9851 13.5463C18.574 13.1016 18.4345 12.4706 18.6193 11.8928L21.6325 2.46611C21.9115 1.59946 22.8242 1.12432 23.6915 1.37899C27.0366 2.36728 30.1931 4.11578 32.6217 6.21018C33.0215 6.55608 33.4024 6.90578 33.7644 7.27069C34.3452 7.85226 34.4168 8.77592 33.9341 9.44491H33.9303Z" fill="#FCCD06"/>
<path d="M37.1163 37.5198C37.418 37.8467 37.6028 38.2724 37.5953 38.7172C37.5953 38.721 37.5953 38.7248 37.5953 38.7286C37.4482 44.7685 12.0379 50.8388 10.5407 47.5965C10.3899 47.2696 10.5068 46.9009 10.5671 46.7413L24.1661 28.0285C25.1089 26.7285 26.9907 26.6145 28.0843 27.789L37.1201 37.516L37.1163 37.5198Z" fill="#FCCD06"/>
</svg>
